<svg xmlns="http://www.w3.org/2000/svg"  viewBox="0 0 50 50" width="50px" height="50px"><path d="M 26.5 5 C 22.78125 5 19.601563 7.175781 18.046875 10.300781 C 15.15625 11.007813 12.683594 13.15625 10.9375 16.171875 C 9.089844 19.355469 8 23.484375 8 28 C 8 30.257813 8.511719 33.257813 9.011719 36.476563 C 9.511719 39.695313 10 43.109375 10 46 C 10 46.265625 9.984375 46.574219 9.953125 46.910156 C 9.917969 47.269531 10.078125 47.617188 10.371094 47.824219 C 10.664063 48.03125 11.046875 48.066406 11.371094 47.914063 C 11.699219 47.761719 11.917969 47.445313 11.945313 47.089844 C 11.980469 46.707031 12 46.34375 12 46 C 12 42.890625 11.488281 39.402344 10.988281 36.171875 C 10.488281 32.9375 10 29.9375 10 28 C 10 23.808594 11.027344 20.003906 12.667969 17.175781 C 14.304688 14.347656 16.519531 12.542969 18.875 12.113281 C 19.207031 12.054688 19.480469 11.832031 19.613281 11.527344 C 20.765625 8.867188 23.40625 7 26.5 7 C 29.9375 7 33.429688 9.558594 35.136719 12.5 C 37.679688 16.894531 40 24.269531 40 33.5 C 40 38.386719 40.007813 43.050781 39.703125 46.921875 C 39.660156 47.472656 40.070313 47.953125 40.621094 48 C 41.171875 48.042969 41.652344 47.628906 41.699219 47.078125 C 42.011719 43.082031 42 38.382813 42 33.5 C 42 23.9375 39.632813 16.269531 36.863281 11.5 C 34.832031 7.988281 30.882813 5 26.5 5 Z M 21.984375 14 C 21.4375 14.007813 21 14.453125 21 15 C 21 16.582031 19.84375 19.332031 18.597656 21.945313 C 17.976563 23.253906 17.34375 24.542969 16.855469 25.730469 C 16.367188 26.914063 16 27.972656 16 29 C 16 30.449219 16.464844 31.636719 17.128906 32.546875 C 17.796875 33.453125 18.636719 34.101563 19.402344 34.675781 C 20.164063 35.25 20.859375 35.753906 21.3125 36.269531 C 21.761719 36.785156 22 37.25 22 38 C 22 39.667969 21.230469 40.609375 20.128906 41.828125 C 19.03125 43.050781 17.601563 44.472656 17.03125 46.757813 C 16.894531 47.292969 17.222656 47.835938 17.757813 47.972656 C 18.292969 48.105469 18.835938 47.777344 18.96875 47.242188 C 19.398438 45.527344 20.46875 44.449219 21.621094 43.171875 C 22.769531 41.890625 24 40.332031 24 38 C 24 36.75 23.488281 35.714844 22.8125 34.949219 C 22.140625 34.183594 21.335938 33.625 20.597656 33.074219 C 19.863281 32.523438 19.203125 31.984375 18.746094 31.359375 C 18.285156 30.738281 18 30.050781 18 29 C 18 28.527344 18.257813 27.585938 18.707031 26.488281 C 19.15625 25.394531 19.773438 24.121094 20.402344 22.804688 C 21.332031 20.851563 22.125 18.878906 22.570313 16.984375 L 32 26.414063 L 32 29 C 32 30.667969 31.21875 31.625 30.21875 32.875 C 29.21875 34.125 28 35.667969 28 38 C 28 40.25 28.933594 41.835938 30.128906 43.171875 C 31.328125 44.503906 32.769531 45.695313 34.199219 47.597656 C 34.53125 48.042969 35.15625 48.132813 35.597656 47.800781 C 36.042969 47.46875 36.132813 46.84375 35.800781 46.402344 C 34.230469 44.304688 32.671875 42.996094 31.621094 41.828125 C 30.566406 40.664063 30 39.75 30 38 C 30 36.332031 30.78125 35.375 31.78125 34.125 C 32.78125 32.875 34 31.332031 34 29 L 34 26 C 34 25.734375 33.894531 25.480469 33.707031 25.292969 L 22.707031 14.292969 C 22.515625 14.101563 22.253906 13.996094 21.984375 14 Z M 22 24 C 21.449219 24 21 24.449219 21 25 C 21 25.550781 21.449219 26 22 26 C 22.550781 26 23 25.550781 23 25 C 23 24.449219 22.550781 24 22 24 Z M 28 24 C 27.449219 24 27 24.449219 27 25 C 27 25.550781 27.449219 26 28 26 C 28.550781 26 29 25.550781 29 25 C 29 24.449219 28.550781 24 28 24 Z M 23 27.527344 L 23 30 L 23.875 28.691406 C 24.21875 28.886719 24.601563 29 25 29 C 25.402344 29 25.78125 28.886719 26.125 28.691406 L 27 30 L 27 27.527344 C 26.441406 27.765625 25.722656 28 25 28 C 24.277344 28 23.554688 27.765625 23 27.527344 Z M 26.5 37 C 26.222656 37 26 37.222656 26 37.5 C 26 37.777344 26.222656 38 26.5 38 C 26.777344 38 27 37.777344 27 37.5 C 27 37.222656 26.777344 37 26.5 37 Z M 26.5 39 C 26.222656 39 26 39.222656 26 39.5 C 26 39.777344 26.222656 40 26.5 40 C 26.777344 40 27 39.777344 27 39.5 C 27 39.222656 26.777344 39 26.5 39 Z"/></svg>